# xmcd
#
# Track frame offsets:
#	150
#	13176
#	26069
#	38492
#	53060
#	68135
#	81155
#	91385
#	110095
#	128732
#
# Disc length: 1917 seconds
#
# Revision: 5
# Processed by: cddbd v1.5.1PL2 Copyright (c) Steve Scherf et al.
# Submitted via: EasyCDDAExtractor 9.0.0.1
#
DISCID=7d077b0a
DTITLE=Alan Jackson - Honky Tonk Christmas
DYEAR=1993
DGENRE=Country
TTITLE0=Honky Tonk Christmas
TTITLE1=The Angels Cried (Duet With Alison Krauss)
TTITLE2=If We Make It Through December
TTITLE3=If You Don't Wanna See Santa Claus
TTITLE4=I Only Want You For Christmas
TTITLE5=Merry Christmas To Me
TTITLE6=A Holly Jolly Christmas
TTITLE7=There's A New Kid In Town (Duet With Keith Whitley)
TTITLE8=Santa's Gonna Come In A Pickup Truck (Duet With The Chipmunks)
TTITLE9=Please Daddy (Don't Get Drunk This Christmas)
EXTD=LABEL =Arista Records, Inc.\nID =75517456752\nUPC =755174-567520\nCOPY
EXTD=RIGHT =1993\nmore info\nMillenniumMusicProjectFormat, syntax as follows:
EXTD=\nTitle{Subtitle}[info](Lyricist;Composer;Date,Artist,Location)[info]\nco
EXTD=rrections to: windking3@yahoo.com
EXTT0=
EXTT1=
EXTT2=
EXTT3=
EXTT4=
EXTT5=
EXTT6=
EXTT7=
EXTT8=
EXTT9=
PLAYORDER=
